<?xml version="1.0" encoding="UTF-8" standalone="no"?>
<!-- Created with Inkscape (http://www.inkscape.org/) -->

<svg
   xmlns:dc="http://purl.org/dc/elements/1.1/"
   xmlns:cc="http://creativecommons.org/ns#"
   xmlns:rdf="http://www.w3.org/1999/02/22-rdf-syntax-ns#"
   xmlns:svg="http://www.w3.org/2000/svg"
   xmlns="http://www.w3.org/2000/svg"
   xmlns:sodipodi="http://sodipodi.sourceforge.net/DTD/sodipodi-0.dtd"
   xmlns:inkscape="http://www.inkscape.org/namespaces/inkscape"
   width="210mm"
   height="297mm"
   viewBox="0 0 210 297"
   version="1.1"
   id="svg8"
   sodipodi:docname="Neues Dokument 1.2020_05_11_11_51_51.0.svg"
   inkscape:version="0.92.3 (2405546, 2018-03-11)">
  <defs
     id="defs2" />
  <sodipodi:namedview
     id="base"
     pagecolor="#ffffff"
     bordercolor="#666666"
     borderopacity="1.0"
     inkscape:pageopacity="0.0"
     inkscape:pageshadow="2"
     inkscape:zoom="0.90509668"
     inkscape:cx="139.96292"
     inkscape:cy="597.42864"
     inkscape:document-units="mm"
     inkscape:current-layer="layer1"
     showgrid="false"
     showguides="true"
     inkscape:guide-bbox="true"
     inkscape:snap-global="false"
     inkscape:window-width="1920"
     inkscape:window-height="1012"
     inkscape:window-x="0"
     inkscape:window-y="1080"
     inkscape:window-maximized="1" />
  <metadata
     id="metadata5">
    <rdf:RDF>
      <cc:Work
         rdf:about="">
        <dc:format>image/svg+xml</dc:format>
        <dc:type
           rdf:resource="http://purl.org/dc/dcmitype/StillImage" />
        <dc:title></dc:title>
      </cc:Work>
    </rdf:RDF>
  </metadata>
  <g
     inkscape:label="Ebene 1"
     inkscape:groupmode="layer"
     id="layer1">
    <rect
       style="opacity:1;fill:#ffffff;fill-opacity:1;stroke:#000000;stroke-width:0.15;stroke-linecap:square;stroke-linejoin:round;stroke-miterlimit:1.41420996;stroke-dasharray:none;stroke-dashoffset:0;stroke-opacity:1"
       id="rect914"
       width="199.33655"
       height="199.33655"
       x="6.3558898"
       y="49.826843"
       ry="0.066965774" />
    <g
       id="g885"
       transform="matrix(0.20396212,0,0,0.20396212,96.378386,127.44146)">
      <path
         id="ellipse1114"
         transform="scale(0.26458333)"
         d="M 572.75586,-770.25977 A 720.24424,735.144 0 0 0 -147.48828,-35.115234 720.24424,735.144 0 0 0 572.75586,700.0293 720.24424,735.144 0 0 0 1293,-35.115234 720.24424,735.144 0 0 0 572.75586,-770.25977 Z m 0,52.5293 A 681.85847,682.61609 0 0 1 1254.6152,-35.115234 681.85847,682.61609 0 0 1 572.75586,647.5 681.85847,682.61609 0 0 1 -109.10156,-35.115234 681.85847,682.61609 0 0 1 572.75586,-717.73047 Z"
         style="opacity:1;fill:#dd0067;fill-opacity:1;stroke:none;stroke-width:1.50075972;stroke-linecap:square;stroke-linejoin:round;stroke-miterlimit:4;stroke-dasharray:none;stroke-dashoffset:0;stroke-opacity:1"
         inkscape:connector-curvature="0" />
      <path
         id="ellipse1118"
         transform="scale(0.26458333)"
         d="M 572.75586,-1081.3867 A 1027.3306,1046.271 0 0 0 -454.57422,-35.115234 1027.3306,1046.271 0 0 0 572.75586,1011.1562 1027.3306,1046.271 0 0 0 1600.0879,-35.115234 1027.3306,1046.271 0 0 0 572.75586,-1081.3867 Z m 0,175.76756 A 845.50314,870.50445 0 0 1 1418.2598,-35.115234 845.50314,870.50445 0 0 1 572.75586,835.38867 845.50314,870.50445 0 0 1 -272.74609,-35.115234 845.50314,870.50445 0 0 1 572.75586,-905.61914 Z"
         style="opacity:1;fill:#dd0067;fill-opacity:1;stroke:none;stroke-width:1.50075972;stroke-linecap:square;stroke-linejoin:round;stroke-miterlimit:4;stroke-dasharray:none;stroke-dashoffset:0;stroke-opacity:1"
         inkscape:connector-curvature="0" />
      <path
         id="ellipse879"
         transform="scale(0.26458333)"
         d="m -617.14258,-366.05273 a 674.28569,680.00002 0 0 0 -674.28512,680.00195 674.28569,680.00002 0 0 0 674.28512,680 674.28569,680.00002 0 0 0 674.285158,-680 674.28569,680.00002 0 0 0 -674.285158,-680.00195 z m 0,31.42968 A 637.14284,648.57145 0 0 1 20,313.94922 637.14284,648.57145 0 0 1 -617.14258,962.51953 637.14284,648.57145 0 0 1 -1254.2852,313.94922 637.14284,648.57145 0 0 1 -617.14258,-334.62305 Z"
         style="opacity:1;fill:#dd0067;fill-opacity:1;stroke:none;stroke-width:0.99999994;stroke-linecap:square;stroke-linejoin:round;stroke-miterlimit:1.41420996;stroke-dasharray:none;stroke-dashoffset:0;stroke-opacity:1"
         inkscape:connector-curvature="0" />
    </g>
    <g
       id="g1051"
       transform="matrix(0.20396212,0,0,0.20396212,96.378386,127.44146)">
      <path
         sodipodi:nodetypes="cccccccccccccccc"
         inkscape:connector-curvature="0"
         id="path1000"
         d="m 166.4421,23.65009 c -0.15476,-5.280941 4.81347,-8.699055 7.61718,-13.062798 l 28.43723,-16.8895684 c 3.67187,-0.9652701 6.6199,-4.4062766 10.85139,-3.1890547 -9.21362,-7.0017039 -9.13601,-10.4450619 -13.09621,-15.4348149 l -4.47676,-23.653354 1.67043,-19.310223 c -4.75526,6.496446 -17.14979,6.269698 -25.45742,11.058277 l -15.12782,-6.332617 c -6.08459,-1.177066 -12.5292,-0.842074 -18.04836,-4.393973 2.83098,2.78069 1.5726,13.99452 2.69307,22.017113 l -7.60676,18.001116 -13.70164,14.693824 c 1.90312,-2.22431 15.37102,4.1577278 23.05655,6.2366075 l 15.4826,16.8209235 c 1.94107,4.666499 7.2943,8.262428 7.70652,13.438542 z"
         style="fill:#ffb400;fill-opacity:1;stroke:#000000;stroke-width:1.20000005;stroke-linecap:butt;stroke-linejoin:miter;stroke-miterlimit:4;stroke-dasharray:none;stroke-opacity:1" />
      <path
         sodipodi:nodetypes="ccccc"
         inkscape:connector-curvature="0"
         id="path972"
         d="m 165.23938,-25.928407 c -9.62767,1.022188 -21.68751,4.426858 -28.39738,7.951269 -7.94947,4.210645 -10.06315,19.6292037 6.41447,24.3215264 7.13651,17.3855246 22.04047,11.9412976 24.58879,0.9354433 1.2787,-14.6064992 -0.78955,-25.6294087 -2.60588,-33.2082387 z"
         style="fill:#dd0067;fill-opacity:1;stroke:#000000;stroke-width:0.80000001;stroke-linecap:butt;stroke-linejoin:miter;stroke-miterlimit:4;stroke-dasharray:none;stroke-opacity:1" />
      <path
         sodipodi:nodetypes="scccccccccccscccs"
         inkscape:connector-curvature="0"
         id="path978"
         transform="scale(0.26458333)"
         d="m 605.79492,-274.03125 c -33.19755,-0.4618 -52.81758,33.88276 -46.94922,57.37109 22.61783,52.14355 55.49682,96.63977 74.36524,101.58789 3.26615,-2.5828 11.19777,-9.70038 21.07422,-19.12304 -5.83987,11.01585 -8.99548,20.3905 -8.74414,26.73633 2.84837,4.49473 10.19464,9.992505 20.04882,15.818355 -13.34146,-2.376328 -23.62888,-1.525713 -29.00976,4.072266 -1.39962,11.942682 -0.79571,78.0253828 -2.73828,116.707031 16.02009,47.645113 64.2872,46.920227 95.85937,-2.816406 58.49231,-11.878781 57.71538,-62.880777 31.29883,-80.261719 -0.60636,-0.305221 -1.21707,-0.601993 -1.82422,-0.90625 26.0389,-5.577146 48.62259,-46.418337 16.42188,-90.628907 11.65676,-46.11198 -13.83657,-71.16478 -38.39063,-71.20117 -6.25888,-0.009 -12.45662,1.60682 -17.96289,4.91406 -0.4623,0.39361 -0.91548,0.79531 -1.375,1.19141 4.20497,-33.31291 -32.17632,-86.34637 -78.11133,-51.94141 -12.36551,-7.97493 -23.80037,-11.37816 -33.96289,-11.51953 z"
         style="fill:#dd0067;fill-opacity:1;stroke:#000000;stroke-width:3.02362204;stroke-linecap:butt;stroke-linejoin:miter;stroke-miterlimit:4;stroke-dasharray:none;stroke-opacity:1" />
      <path
         inkscape:transform-center-y="-8.1700755"
         inkscape:transform-center-x="24.380603"
         style="fill:#dd0067;fill-opacity:1;stroke:#000000;stroke-width:0.80000001;stroke-linecap:butt;stroke-linejoin:miter;stroke-miterlimit:4;stroke-dasharray:none;stroke-opacity:1"
         d="m 165.08604,-28.776189 c -6.20337,-8.414033 -13.34825,-19.743136 -16.68386,-25.293161 -7.0126,-6.479858 -24.6858,-2.102922 -21.545,16.769474 -10.8755,11.844604 -2.80828,22.797182 6.97297,21.867316 12.15263,-7.830138 26.03345,-8.834191 31.25589,-13.343629 z"
         id="path976"
         inkscape:connector-curvature="0"
         sodipodi:nodetypes="ccccc" />
      <path
         inkscape:transform-center-y="-1.3095188"
         inkscape:transform-center-x="0.35777618"
         d="m 165.77392,-52.78899 3.87116,22.335544 21.89319,-5.946841 -20.04611,10.583757 12.42114,18.9839837 -16.26034,-15.7944227 -14.21649,17.6795881 9.99667,-20.3452461 -21.20743,-8.057398 22.43862,3.220368 z"
         inkscape:randomized="0"
         inkscape:rounded="0"
         inkscape:flatsided="false"
         sodipodi:arg2="-1.0073947"
         sodipodi:arg1="-1.6325733"
         sodipodi:r2="4.2458205"
         sodipodi:r1="25.974693"
         sodipodi:cy="-26.863846"
         sodipodi:cx="167.37753"
         sodipodi:sides="5"
         id="path968"
         style="opacity:1;fill:#ffb400;fill-opacity:1;stroke:#000000;stroke-width:0.69999999;stroke-linecap:square;stroke-linejoin:round;stroke-miterlimit:4;stroke-dasharray:none;stroke-dashoffset:0;stroke-opacity:1"
         sodipodi:type="star" />
      <path
         sodipodi:nodetypes="cccccccccccc"
         inkscape:connector-curvature="0"
         id="path992"
         d="m 177.93469,-36.886456 c 2.83294,-4.532058 4.95195,-9.832966 9.95579,-12.02713 4.64233,-2.403264 6.78667,0.03333 8.61944,3.073599 4.10884,6.043006 4.45888,11.268883 4.54358,16.437076 -0.60837,5.624134 -3.08673,5.128276 -5.61266,4.476765 -4.40096,-1.31761 -8.73942,-1.885223 -12.96257,-1.069078 3.33353,0.504435 6.72238,0.732247 9.88897,2.071338 3.75664,1.526127 8.16065,3.145299 9.75534,-0.133634 1.44182,-3.623231 -0.0325,-10.439462 -0.33409,-14.232103 -0.27114,-3.796459 -3.67355,-8.81454 -5.81311,-11.826676 -1.49336,-1.870857 -5.18178,-2.255577 -7.28309,-0.935444 -8.56124,5.827402 -8.00255,9.628151 -10.7576,14.165287 z"
         style="fill:#000000;stroke:#000000;stroke-width:0.26458332px;stroke-linecap:butt;stroke-linejoin:miter;stroke-opacity:1" />
      <path
         sodipodi:nodetypes="ccccc"
         inkscape:connector-curvature="0"
         id="path994"
         d="m 198.24717,-17.509417 c 0.11072,-1.586431 -0.97357,-2.276601 -2.27179,-2.80633 -17.48388,-4.632672 -21.38052,-4.416677 -22.58427,-6.481286 l -1.26953,3.407686 c 8.44353,0.546648 17.14753,2.482449 26.12559,5.87993 z"
         style="fill:#000000;stroke:#000000;stroke-width:0.26458332px;stroke-linecap:butt;stroke-linejoin:miter;stroke-opacity:1" />
      <path
         sodipodi:nodetypes="ccccccccccc"
         inkscape:connector-curvature="0"
         id="path996"
         d="m 188.82592,-18.712129 c 3.39025,1.439655 8.59569,3.317362 9.55489,5.34539 1.60619,4.2260585 -0.42787,6.0252811 -1.26953,8.619442 -5.36422,6.6469563 -10.58094,9.9016622 -15.76891,12.4948504 -8.00532,2.8457996 -7.20804,-3.3152437 -7.3332,-4.2763124 -0.11791,-4.10207945 0.0704,-9.4692366 -3.09031,-15.167546 1.50966,2.6044861 3.99351,5.3672386 4.04246,8.2686513 0.18727,5.616299 0.64191,10.515651 5.57925,8.5693292 10.95197,-4.67720854 10.35688,-4.93318251 15.10072,-10.4235116 1.49127,-1.8887339 1.76731,-5.7451059 0.735,-7.6171809 -2.11555,-3.812882 -4.55955,-4.076401 -7.34992,-5.679478"
         style="fill:#000000;stroke:#000000;stroke-width:0.26458332px;stroke-linecap:butt;stroke-linejoin:miter;stroke-opacity:1" />
      <path
         sodipodi:nodetypes="cccccccccccc"
         inkscape:connector-curvature="0"
         id="path998"
         d="m 163.16804,-0.53780195 c -1.64935,2.54553185 -1.88141,6.69988055 -5.61265,6.88219035 -6.16103,0.3164528 -8.37674,-2.6272483 -9.88898,-3.8754082 -5.92944,-3.9285632 -7.6512,-7.8381712 -8.41899,-10.156242 -0.25767,-0.9402145 -1.02519,-4.7198202 3.74178,-4.8196532 5.21874,-0.882168 9.87267,-3.638337 12.16076,-7.140658 -4.07747,2.282164 -8.2383,4.923393 -11.75986,4.810851 -4.65295,0.393913 -6.5952,2.280196 -6.43739,5.7031013 0.71719,2.8865027 2.4756,6.6436577 3.66447,7.3429928 3.26918,2.37967173 6.63537,5.5845655 9.76918,8.2801151 0.9851,0.9406347 6.4102,3.8785728 9.84172,0.9239793 3.18601,-3.189672 2.31555,-5.3877644 2.93996,-7.95126845 z"
         style="fill:#000000;stroke:#000000;stroke-width:0.26458332px;stroke-linecap:butt;stroke-linejoin:miter;stroke-opacity:1" />
      <path
         sodipodi:nodetypes="ccccccccc"
         inkscape:connector-curvature="0"
         id="path986"
         d="m 141.31876,-21.785729 c -5.41696,0.527913 -9.08334,2.092174 -10.22306,-5.078122 0.27039,-5.823375 1.30973,-12.659267 6.88219,-20.780205 4.82123,-6.300371 7.71779,-3.281246 9.28762,-0.26727 1.4994,2.856434 3.84415,6.794096 8.55262,10.824416 -2.61009,-0.442442 -6.71741,-4.088165 -7.33775,-5.744615 -4.14078,-8.480233 -6.57291,-5.313444 -9.36659,-2.607558 -6.86727,9.293133 -6.47168,12.270491 -6.81537,17.238885 -0.11158,2.78192 0.25493,5.547193 9.02034,6.414469 z"
         style="fill:#000000;stroke:#000000;stroke-width:0.26458332px;stroke-linecap:butt;stroke-linejoin:miter;stroke-opacity:1" />
      <path
         sodipodi:nodetypes="ccccccccccc"
         inkscape:connector-curvature="0"
         id="path988"
         d="m 172.9902,-41.363222 c 1.31088,-3.063411 1.0695,-5.50592 4.00904,-9.220798 6.52255,-7.335395 1.06908,-8.485809 1.06908,-8.485809 -6.17497,-2.792176 -11.594,-2.93857 -16.70434,-2.004521 -6.33097,0.388413 -7.16832,3.397312 -7.2831,6.414469 l -0.46772,3.006782 c -0.51757,-2.580305 -1.64114,-2.220849 -0.73499,-7.015825 0.40529,-3.455424 11.76449,-4.815439 14.03165,-4.877669 4.35427,0.100226 8.93859,0.702561 14.36574,3.608138 4.86726,2.896941 -0.66056,7.054979 -2.22168,9.220799 -2.39962,2.887432 -4.00596,6.308235 -6.06368,9.354434 z"
         style="fill:#000000;stroke:#000000;stroke-width:0.26458332px;stroke-linecap:butt;stroke-linejoin:miter;stroke-opacity:1" />
      <path
         sodipodi:nodetypes="ccccc"
         inkscape:connector-curvature="0"
         id="path990"
         d="m 183.48053,-52.154229 c 0.62363,-0.705977 2.1827,-1.042205 2.87315,-0.501129 -3.07096,2.136858 -9.92841,10.569819 -13.89802,21.515195 l -2.53906,-2.338608 c 4.24991,-3.824678 7.93186,-13.228636 13.56393,-18.675458 z"
         style="fill:#000000;stroke:#000000;stroke-width:0.26458332px;stroke-linecap:butt;stroke-linejoin:miter;stroke-opacity:1" />
      <circle
         r="11.5"
         cy="-27.064301"
         cx="167.17708"
         id="path970"
         style="opacity:1;fill:#000000;fill-opacity:1;stroke:#000000;stroke-width:0.065;stroke-linecap:square;stroke-linejoin:round;stroke-miterlimit:4;stroke-dasharray:none;stroke-dashoffset:0;stroke-opacity:1" />
      <ellipse
         ry="7.3232884"
         rx="7.3941593"
         cy="-27.209078"
         cx="167.27809"
         id="path920"
         style="opacity:1;fill:#ffb400;fill-opacity:1;stroke:#000000;stroke-width:0.065;stroke-linecap:square;stroke-linejoin:round;stroke-miterlimit:4;stroke-dasharray:none;stroke-dashoffset:0;stroke-opacity:1" />
      <circle
         r="1.15"
         cy="-29.335194"
         cx="158.60828"
         id="path922"
         style="opacity:1;fill:#ffb400;fill-opacity:1;stroke:#000000;stroke-width:0.065;stroke-linecap:square;stroke-linejoin:round;stroke-miterlimit:4;stroke-dasharray:none;stroke-dashoffset:0;stroke-opacity:1" />
      <circle
         style="opacity:1;fill:#ffb400;fill-opacity:1;stroke:#000000;stroke-width:0.065;stroke-linecap:square;stroke-linejoin:round;stroke-miterlimit:4;stroke-dasharray:none;stroke-dashoffset:0;stroke-opacity:1"
         id="circle924"
         cx="159.69495"
         cy="-32.217262"
         r="1.15" />
      <circle
         r="1.15"
         cy="-34.154388"
         cx="161.72656"
         id="circle926"
         style="opacity:1;fill:#ffb400;fill-opacity:1;stroke:#000000;stroke-width:0.065;stroke-linecap:square;stroke-linejoin:round;stroke-miterlimit:4;stroke-dasharray:none;stroke-dashoffset:0;stroke-opacity:1" />
      <circle
         style="opacity:1;fill:#ffb400;fill-opacity:1;stroke:#000000;stroke-width:0.065;stroke-linecap:square;stroke-linejoin:round;stroke-miterlimit:4;stroke-dasharray:none;stroke-dashoffset:0;stroke-opacity:1"
         id="circle928"
         cx="164.08891"
         cy="-35.524551"
         r="1.15" />
      <circle
         r="1.15"
         cy="-36.091515"
         cx="166.6875"
         id="circle930"
         style="opacity:1;fill:#ffb400;fill-opacity:1;stroke:#000000;stroke-width:0.065;stroke-linecap:square;stroke-linejoin:round;stroke-miterlimit:4;stroke-dasharray:none;stroke-dashoffset:0;stroke-opacity:1" />
      <circle
         style="opacity:1;fill:#ffb400;fill-opacity:1;stroke:#000000;stroke-width:0.065;stroke-linecap:square;stroke-linejoin:round;stroke-miterlimit:4;stroke-dasharray:none;stroke-dashoffset:0;stroke-opacity:1"
         id="circle932"
         cx="169.56956"
         cy="-35.760784"
         r="1.15" />
      <circle
         r="1.15"
         cy="-34.626854"
         cx="172.12091"
         id="circle934"
         style="opacity:1;fill:#ffb400;fill-opacity:1;stroke:#000000;stroke-width:0.065;stroke-linecap:square;stroke-linejoin:round;stroke-miterlimit:4;stroke-dasharray:none;stroke-dashoffset:0;stroke-opacity:1" />
      <circle
         style="opacity:1;fill:#ffb400;fill-opacity:1;stroke:#000000;stroke-width:0.065;stroke-linecap:square;stroke-linejoin:round;stroke-miterlimit:4;stroke-dasharray:none;stroke-dashoffset:0;stroke-opacity:1"
         id="circle936"
         cx="174.19978"
         cy="-32.831467"
         r="1.15" />
      <circle
         r="1.15"
         cy="-30.516363"
         cx="175.38097"
         id="circle938"
         style="opacity:1;fill:#ffb400;fill-opacity:1;stroke:#000000;stroke-width:0.065;stroke-linecap:square;stroke-linejoin:round;stroke-miterlimit:4;stroke-dasharray:none;stroke-dashoffset:0;stroke-opacity:1" />
      <circle
         style="opacity:1;fill:#ffb400;fill-opacity:1;stroke:#000000;stroke-width:0.065;stroke-linecap:square;stroke-linejoin:round;stroke-miterlimit:4;stroke-dasharray:none;stroke-dashoffset:0;stroke-opacity:1"
         id="circle940"
         cx="175.90068"
         cy="-28.01227"
         r="1.15" />
      <circle
         r="1.15"
         cy="-25.555426"
         cx="175.85344"
         id="circle942"
         style="opacity:1;fill:#ffb400;fill-opacity:1;stroke:#000000;stroke-width:0.065;stroke-linecap:square;stroke-linejoin:round;stroke-miterlimit:4;stroke-dasharray:none;stroke-dashoffset:0;stroke-opacity:1" />
      <circle
         style="opacity:1;fill:#ffb400;fill-opacity:1;stroke:#000000;stroke-width:0.065;stroke-linecap:square;stroke-linejoin:round;stroke-miterlimit:4;stroke-dasharray:none;stroke-dashoffset:0;stroke-opacity:1"
         id="circle944"
         cx="158.65552"
         cy="-26.169636"
         r="1.15" />
      <circle
         style="opacity:1;fill:#ffb400;fill-opacity:1;stroke:#000000;stroke-width:0.065;stroke-linecap:square;stroke-linejoin:round;stroke-miterlimit:4;stroke-dasharray:none;stroke-dashoffset:0;stroke-opacity:1"
         id="circle946"
         cx="159.31699"
         cy="-23.145834"
         r="1.15" />
      <circle
         r="1.15"
         cy="-20.972471"
         cx="160.78165"
         id="circle948"
         style="opacity:1;fill:#ffb400;fill-opacity:1;stroke:#000000;stroke-width:0.065;stroke-linecap:square;stroke-linejoin:round;stroke-miterlimit:4;stroke-dasharray:none;stroke-dashoffset:0;stroke-opacity:1" />
      <circle
         style="opacity:1;fill:#ffb400;fill-opacity:1;stroke:#000000;stroke-width:0.065;stroke-linecap:square;stroke-linejoin:round;stroke-miterlimit:4;stroke-dasharray:none;stroke-dashoffset:0;stroke-opacity:1"
         id="circle950"
         cx="162.86052"
         cy="-19.507814"
         r="1.15" />
      <circle
         r="1.15"
         cy="-18.610121"
         cx="165.27011"
         id="circle952"
         style="opacity:1;fill:#ffb400;fill-opacity:1;stroke:#000000;stroke-width:0.065;stroke-linecap:square;stroke-linejoin:round;stroke-miterlimit:4;stroke-dasharray:none;stroke-dashoffset:0;stroke-opacity:1" />
      <circle
         style="opacity:1;fill:#ffb400;fill-opacity:1;stroke:#000000;stroke-width:0.065;stroke-linecap:square;stroke-linejoin:round;stroke-miterlimit:4;stroke-dasharray:none;stroke-dashoffset:0;stroke-opacity:1"
         id="circle954"
         cx="167.8687"
         cy="-18.515627"
         r="1.15" />
      <circle
         r="1.15"
         cy="-18.988096"
         cx="170.60902"
         id="circle956"
         style="opacity:1;fill:#ffb400;fill-opacity:1;stroke:#000000;stroke-width:0.065;stroke-linecap:square;stroke-linejoin:round;stroke-miterlimit:4;stroke-dasharray:none;stroke-dashoffset:0;stroke-opacity:1" />
      <circle
         style="opacity:1;fill:#ffb400;fill-opacity:1;stroke:#000000;stroke-width:0.065;stroke-linecap:square;stroke-linejoin:round;stroke-miterlimit:4;stroke-dasharray:none;stroke-dashoffset:0;stroke-opacity:1"
         id="circle958"
         cx="172.87688"
         cy="-20.169271"
         r="1.15" />
      <circle
         r="1.15"
         cy="-22.767859"
         cx="174.90849"
         id="circle960"
         style="opacity:1;fill:#ffb400;fill-opacity:1;stroke:#000000;stroke-width:0.065;stroke-linecap:square;stroke-linejoin:round;stroke-miterlimit:4;stroke-dasharray:none;stroke-dashoffset:0;stroke-opacity:1" />
    </g>
    <g
       id="g1110"
       transform="matrix(0.20396212,0,0,0.20396212,96.378386,127.44146)">
      <path
         sodipodi:nodetypes="ccccc"
         inkscape:connector-curvature="0"
         id="path1053"
         d="m 53.294642,155.25893 c 69.093288,-50.97008 146.490518,-15.52089 175.380948,4.15773 l 4.53572,-6.42559 C 185.00568,124.48722 119.02998,103.04846 55.19295,148.68406 Z"
         style="fill:#000000;stroke:#000000;stroke-width:0.26458332px;stroke-linecap:butt;stroke-linejoin:miter;stroke-opacity:1" />
      <path
         sodipodi:nodetypes="ssssscsssssscs"
         inkscape:connector-curvature="0"
         id="path1055"
         d="m 219.79315,131.63541 c -1.92859,-2.99202 -3.3403,-9.10951 -5.5279,0.8977 -2.00513,9.17252 -4.63174,4.7466 -5.71688,-0.99219 -0.56843,-3.00614 -7.30334,-10.89029 -16.25298,-6.3311 -3.35903,1.71118 -7.53126,5.0759 -11.1503,1.88988 -2.62468,-2.31063 -7.59093,1.70742 -10.01637,3.11831 0.74301,-1.55903 3.24243,-3.09891 5.47591,-7.14242 1.50001,-2.71561 6.56232,-3.91088 8.50921,-2.59047 1.86871,1.26738 6.09127,1.38287 7.84301,-0.56697 3.47859,-3.87199 12.29639,-2.9383 15.49702,1.13393 3.94308,5.01687 5.81138,11.48103 7.74851,2.55134 1.36603,-6.29705 5.59751,-3.69214 8.03199,6.4256 1.56566,6.50685 0.2234,14.82409 -2.36234,19.93824 0.52993,-5.93592 1.40337,-12.92948 -2.07888,-18.33185 z"
         style="fill:#000000;stroke:#000000;stroke-width:0.26458332px;stroke-linecap:butt;stroke-linejoin:miter;stroke-opacity:1" />
      <path
         sodipodi:nodetypes="ccccccccccccccccc"
         inkscape:connector-curvature="0"
         id="path1057"
         d="m 173.58556,70.214285 0.56697,31.183035 c 7.2432,1.02209 2.4322,6.3266 3.49628,9.5439 4.20522,14.02976 19.49851,7.32355 19.72108,5.97507 0.20979,-2.58247 4.97077,-2.45879 5.22535,-0.21093 l 0.28348,4.34672 8.22098,7.37054 1.98438,-12.18973 -8.40997,-7.18155 c -0.97465,-1.45674 -1.88053,-0.19815 -2.20055,0.65048 -0.2139,0.60145 -0.48462,1.12412 -0.82326,1.61738 -4.30204,-1.47236 -8.79948,4.08687 -15.11905,1.03943 -7.92581,-4.92691 -5.57571,-7.71766 -6.16573,-11.12668 l 1.44103,-5.69326 c -1.51114,-1.417911 -4.64994,0.473735 -4.44122,-4.44122 l -0.18899,-22.678572 z"
         style="fill:#000000;stroke:#000000;stroke-width:0.26458332px;stroke-linecap:butt;stroke-linejoin:miter;stroke-opacity:1" />
      <path
         sodipodi:nodetypes="ccccccc"
         inkscape:connector-curvature="0"
         id="path1059"
         d="M 159.50595,125.68229 148.45015,89.018598 C 146.28884,78.691327 143.87641,68.335357 145.9933,58.497023 l -3.77976,-0.519717 c -1.82915,25.234074 1.18308,29.342125 3.30729,37.325149 l 8.59896,30.285345 z"
         style="fill:#000000;stroke:#000000;stroke-width:0.26458332px;stroke-linecap:butt;stroke-linejoin:miter;stroke-opacity:1" />
      <path
         sodipodi:nodetypes="ccccccccccccc"
         inkscape:connector-curvature="0"
         id="path1061"
         d="m 119.25149,126.62723 c 1.91442,-3.48565 2.72939,-10.26965 3.40178,-17.4814 0.40358,-9.09631 -2.39263,-20.18134 -3.9215,-22.395086 -6.59644,-9.108491 -3.71382,-16.310807 -3.63802,-20.788691 L 117.5506,20.60491 c -0.72314,-5.447175 2.439,-5.066442 4.81919,-5.858631 L 115.8497,6.7142853 114.71577,19.565476 c -0.91344,20.221726 -3.13043,59.094215 -2.74032,60.665178 0.48213,2.594307 1.04731,10.441593 4.25223,14.882813 2.85633,3.954517 3.66761,11.879123 3.53591,14.788323 -0.17083,8.07268 -1.35531,13.55232 -3.44142,16.72544 z"
         style="fill:#000000;stroke:#000000;stroke-width:0.26458332px;stroke-linecap:butt;stroke-linejoin:miter;stroke-opacity:1" />
      <path
         sodipodi:nodetypes="cccccccccc"
         inkscape:connector-curvature="0"
         id="path1063"
         d="m 124.68123,24.518716 c 0.36224,3.197617 -0.12175,5.643027 -0.53454,8.151721 1.05991,11.112767 0.77039,22.348209 0.93545,33.542326 -0.13208,14.829399 -2.44893,26.462647 -4.54358,31.404169 l 1.10248,4.109268 3.14042,-10.356693 c 1.38302,-11.485479 2.07134,-21.014067 3.24064,-31.537804 0.89847,-6.295334 0.17861,-11.871414 0.26727,-17.806832 -1.92542,-6.293716 1.72275,-1.120331 1.87089,-9.488069 z"
         style="fill:#000000;stroke:#000000;stroke-width:0.26458332px;stroke-linecap:butt;stroke-linejoin:miter;stroke-opacity:1" />
      <path
         sodipodi:nodetypes="cccccccc"
         inkscape:connector-curvature="0"
         id="path1065"
         d="m 92.007533,123.74253 c 2.671591,-1.09466 5.085266,-2.96307 8.418987,-2.07134 3.52368,0.0942 6.93925,0.36602 8.01809,4.47676 l 7.81763,-1.5368 -4.27631,-5.94674 c -4.59164,-5.39462 -9.33056,-4.45661 -14.098465,-2.27179 l -5.545843,3.34087 z"
         style="fill:#000000;stroke:#000000;stroke-width:0.26458332px;stroke-linecap:butt;stroke-linejoin:miter;stroke-opacity:1" />
      <path
         sodipodi:nodetypes="ccccccccccccccccccccccc"
         inkscape:connector-curvature="0"
         id="path1067"
         d="M 94.88068,130.89199 94.747047,99.354184 93.009796,70.62271 C 92.978925,67.027047 88.512218,58.48508 87.129866,55.388347 84.310454,49.374783 82.693687,43.361218 81.650841,37.347654 82.5368,31.558708 79.165999,30.353964 75.503642,29.463203 66.059722,23.672426 65.363278,13.764472 64.946495,9.2843534 c 0.557702,-18.7730137 4.454492,-27.5287614 6.681738,-41.2931424 1.416581,-5.799697 0.465054,-13.967501 4.276313,-17.372519 0.485278,-2.212047 1.501153,-3.628199 4.810851,-1.603617 3.118051,1.824938 5.763276,-3.442518 8.552625,-6.548104 5.565279,5.217459 7.501553,2.187178 9.220799,-1.336347 -3.079312,1.300949 -5.648259,-0.205111 -8.018086,-2.80633 -3.537012,1.842209 -3.473859,11.866611 -10.690781,5.34539 -3.577083,1.875935 -3.575926,6.148575 -7.082642,7.750817 -3.86454,6.359056 -3.037392,8.026423 -3.608139,11.091685 -1.314761,10.978267 -3.336196,19.83651 -5.345391,28.7314742 -7.306874,34.9875498 1.826736,47.1308138 6.1472,47.5739758 8.691708,1.139861 7.054224,6.277848 7.279736,10.518006 -0.629069,4.571823 1.471513,1.806637 5.682836,16.743486 1.147747,2.91838 5.598769,4.747085 5.211755,16.570711 3.016137,17.153748 0.979989,33.675961 1.469983,50.513941 z"
         style="fill:#000000;stroke:#000000;stroke-width:0.26458332px;stroke-linecap:butt;stroke-linejoin:miter;stroke-opacity:1" />
      <path
         sodipodi:nodetypes="cccccccccc"
         inkscape:connector-curvature="0"
         id="path1069"
         d="m 66.051339,24.57366 c 3.055307,-3.933914 6.110614,-9.99209 9.165921,-15.8749999 10.387903,-16.0327938 25.75349,-3.9744694 28.72619,-2.8348213 2.21178,0.9026947 12.76266,10.6642082 18.42634,8.8824402 l -3.2128,-8.598958 C 114.16731,4.8068828 109.8944,0.95774991 105.36086,-1.9791671 91.382511,-9.3371075 82.368807,-2.8318942 80.319941,-0.75074452 76.686511,4.2147835 73.561172,9.688403 70.681548,15.407738 c -2.382166,2.852586 -5.027987,1.750334 -7.654018,0.94494 z"
         style="fill:#000000;stroke:#000000;stroke-width:0.26458332px;stroke-linecap:butt;stroke-linejoin:miter;stroke-opacity:1" />
      <path
         sodipodi:nodetypes="ccccc"
         inkscape:connector-curvature="0"
         id="path1071"
         d="m 112.06994,-68.219494 c -1.91594,24.976167 0.64017,118.865856 55.18452,142.119047 53.26276,-26.416331 59.0405,-113.91116 55.09003,-142.969494 -24.09753,-5.532894 -37.9691,-12.770112 -53.38913,-19.749256 -22.67034,14.283641 -42.02254,21.930982 -56.88542,20.599703 z"
         style="fill:none;stroke:#000000;stroke-width:5;stroke-linecap:butt;stroke-linejoin:miter;stroke-miterlimit:4;stroke-dasharray:none;stroke-opacity:1" />
      <path
         sodipodi:nodetypes="ccccccccccc"
         inkscape:connector-curvature="0"
         id="path1073"
         d="m 67.27976,-17.00372 -0.94494,2.456845 22.962055,-29.387649 c 1.400925,-1.373608 2.038081,-3.26654 5.797546,-3.696732 5.721499,-0.985872 11.443009,-2.386207 17.164509,-3.57931 l 0.0945,-6.142113 c -3.02572,1.709382 -7.69303,2.664516 -13.040186,3.307292 -5.400721,0.498064 -5.722038,2.100346 -6.992559,3.496279 l -21.639137,28.442709 -3.02381,0.09449 z"
         style="fill:#000000;stroke:#000000;stroke-width:0.26458332px;stroke-linecap:butt;stroke-linejoin:miter;stroke-opacity:1" />
      <path
         sodipodi:nodetypes="ccccccc"
         inkscape:connector-curvature="0"
         id="path1075"
         d="m 111.78548,-59.671185 c -4.26144,-0.193052 -6.68735,-2.221632 -9.2208,-4.142676 -1.13076,3.655407 -6.146108,11.666664 8.75308,28.263751 v -6.080382 c -5.32104,-1.851732 -8.627,-14.510313 -8.21854,-17.172067 2.10577,-0.273332 6.59265,2.628151 9.88897,3.942226 z"
         style="fill:#000000;stroke:#000000;stroke-width:0.26458332px;stroke-linecap:butt;stroke-linejoin:miter;stroke-opacity:1" />
      <path
         sodipodi:nodetypes="cccccccccccccccccccccccc"
         inkscape:connector-curvature="0"
         id="path1077"
         d="m 78.241072,-53.383928 3.96875,-8.409972 c 1.201036,-1.880375 0.835121,-3.852923 -0.09449,-5.85863 -0.957053,-1.587622 -2.353741,-3.065335 -1.889885,-5.008185 0.689889,-2.239573 -0.888389,-2.744664 -2.267858,-3.401786 -3.186226,-0.545617 -3.962949,-1.848507 -2.740327,-3.779762 l 16.441964,-29.860117 c 1.700893,-4.22937 3.921503,-0.78244 5.102679,-0.56697 6.172135,3.69377 -0.566965,6.11062 11.339285,14.268605 7.04953,3.608353 13.95366,4.599333 20.88319,6.047619 14.68416,2.400927 15.997,11.534788 15.44977,14.552084 l 7.41778,-3.543527 c -3.9523,-1.211411 -4.17737,-3.87735 -4.58296,-6.472843 -3.59849,-9.291507 -12.91796,-10.212085 -16.5837,-11.386532 -5.12936,-1.009112 -10.3355,-1.91584 -15.21354,-3.260046 -4.38736,-0.9587 -5.06557,-2.66712 -4.48847,-3.40178 1.70082,-1.44355 0.21638,-2.14997 -0.27537,-3.30394 -2.37831,-5.25101 -13.940074,-10.93132 -13.568009,-10.77568 -1.865581,-1.17236 -2.873738,-0.44615 -3.49628,1.13393 l -11.055803,20.741444 -13.796131,24.946429 c -0.796639,1.308838 -1.948241,2.682216 1.275669,3.260045 2.774638,0.90163 5.827657,1.48896 4.819197,6.66183 z"
         style="fill:#000000;stroke:#000000;stroke-width:0.26458332px;stroke-linecap:butt;stroke-linejoin:miter;stroke-opacity:1" />
      <path
         sodipodi:nodetypes="ccccc"
         inkscape:connector-curvature="0"
         id="path1079"
         d="m 168.91434,-87.333581 c 0.30812,-2.158174 3.6271,-4.208818 0.73499,-6.481286 -16.25609,-7.996273 -32.73214,-13.604453 -50.72857,-2.705595 l 13.18192,4.063244 c 9.12353,-9.995122 24.05069,1.592009 36.81166,5.123637 z"
         style="fill:#000000;stroke:#000000;stroke-width:0.26458332px;stroke-linecap:butt;stroke-linejoin:miter;stroke-opacity:1" />
      <path
         sodipodi:nodetypes="ccccccccccccccccccccccccccccccccccccccccccccc"
         inkscape:connector-curvature="0"
         id="path1081"
         d="m 67.619189,-113.52599 c -4.959708,-18.88074 -8.321318,-12.62989 -9.221867,-39.73815 l -0.755953,-23.15104 c -5.711885,-2.55181 -9.363015,-6.8136 -9.165922,-14.2686 1.106852,-4.66613 0.08869,-7.20724 -3.590774,-7.08705 0.376875,-3.08661 -1.408539,-5.79164 1.133928,-9.26042 0.73041,-1.54881 1.178901,-3.28004 3.96875,-3.49628 2.497189,0.94402 2.678894,-0.6204 2.173363,-2.92932 -2.439288,-30.19381 -1.775266,-58.35549 -0.283482,-87.3125 0.282216,-8.90066 3.037452,-12.96769 6.047619,-16.53645 1.480407,4.58042 2.960814,9.50332 4.441221,15.21354 l 1.511904,61.61012 0.377976,26.64732 c -0.219085,1.59747 -0.07637,2.9236 1.700893,3.02381 2.590503,0.81432 3.876314,0.034 5.386161,-0.47247 1.375108,2.69589 0.167945,5.88364 -1.039434,9.07143 -0.779754,2.16408 -0.542914,3.37934 0.566964,3.77976 2.381752,2.24617 1.284579,5.40785 1.511905,8.22098 0.30568,11.36996 2.967074,18.43819 6.142113,24.56845 3.034756,6.09519 4.24353,12.13667 4.252232,18.14286 -0.236551,8.89267 0.92891,16.06787 4.252232,20.5997 1.097233,1.51886 0.763685,5.62782 6.520089,13.32366 l -4.346726,6.99256 c -0.222,-4.60531 -3.885695,-10.49092 -6.236607,-14.93006 -4.488443,-9.23176 -3.492724,-13.07966 -3.49628,-16.81994 -0.02412,-1.38127 0.618758,-4.17247 -2.078869,-15.21354 -0.775614,-5.38814 -3.094389,-11.61218 -5.291667,-14.74107 -5.296147,-9.82843 -2.041831,-11.14719 -2.267857,-13.04018 0.261157,-4.67913 0.603254,-9.44258 -2.078869,-11.0558 -0.53453,-4.00375 -3.936839,-4.69853 -5.953125,-6.99256 4.213845,-4.97493 2.668793,-5.89031 -0.755952,-5.48066 l -0.283482,-66.99628 c -0.576708,-11.85157 -2.304915,-22.65633 -4.252232,-33.2619 -4.200994,7.34696 -3.359707,20.52103 -2.929316,30.33259 -0.228359,20.85169 1.37544,41.70337 2.078869,62.55506 0.123286,3.39163 -1.030835,4.69296 -2.267857,5.85863 -2.581122,2.67728 -3.687779,12.20202 1.27567,19.27678 4.63317,6.20485 6.883031,-0.27839 6.18936,11.52828 -0.897842,14.31911 0.731606,30.27193 3.307291,35.34077 l 7.9375,21.92262 c 2.205216,7.55949 5.829087,14.99001 6.614584,22.678572 0.225391,3.705409 1.257363,4.507121 2.740327,3.685267 l -5.386161,9.260417 c 1.164771,-3.227588 -1.196924,-7.811508 -1.795386,-11.717262 -1.486218,-6.702324 -4.057895,-12.922224 -6.653133,-19.131644 z"
         style="fill:#000000;stroke:#000000;stroke-width:0.26458332px;stroke-linecap:butt;stroke-linejoin:miter;stroke-opacity:1" />
      <path
         sodipodi:nodetypes="cccccccccccccccccccc"
         inkscape:connector-curvature="0"
         id="path1083"
         d="m 113.18864,-98.759353 2.53906,-3.207237 c 0.71286,-0.81763 1.15164,-2.14932 0.80181,-3.74177 l -3.00678,-18.90932 c -2.74025,-10.11242 0.47784,-14.71622 3.60814,-16.33685 9.25995,-4.30691 15.39961,-0.31211 19.50396,6.64972 6.44946,17.76664 8.11675,13.3055 7.75753,17.17068 l -0.46772,11.49259 c 0.0867,3.64206 -1.66949,4.13594 -3.00678,5.34539 l 7.75081,0.467718 c -3.78732,-2.781148 -2.16251,-4.314938 -2.22118,-6.465078 l 1.15211,-14.64921 c 0.69764,-3.37088 -1.80815,-4.52177 -2.48846,-6.83089 l -5.52963,-12.41252 c -3.4024,-6.1453 -7.97756,-8.47359 -10.42351,-8.48581 -9.09809,0.0265 -10.35827,2.78844 -13.16302,5.01131 -7.12628,9.5153 -6.38288,15.79133 -6.28084,16.70434 0.0965,7.53292 2.01867,13.34755 3.0736,19.9784 0.82209,5.97762 0.59633,5.68639 -4.14268,5.47902 z"
         style="fill:#000000;stroke:#000000;stroke-width:0.26458332px;stroke-linecap:butt;stroke-linejoin:miter;stroke-opacity:1" />
      <path
         sodipodi:nodetypes="cccccccccccccccccccccccccc"
         inkscape:connector-curvature="0"
         id="path1085"
         d="m 96.21703,-115.63074 c 1.891531,-0.77234 5.48949,0.24707 5.14494,-2.87315 -0.47239,-2.01601 -0.78808,-4.23351 1.33635,-9.58829 2.31685,-4.24473 1.85094,-9.63295 0.53454,-14.5996 -1.8059,-8.22557 -0.84332,-23.63901 7.75081,-25.49083 4.57229,-0.60462 10.75453,6.95652 11.22532,8.15172 6.13743,10.97276 6.06067,0.96393 7.65297,-2.74762 5.45537,-16.39671 10.78689,-14.81345 15.33221,-12.48675 10.45327,8.24565 13.79977,20.61451 11.8935,27.52877 -0.87904,5.89173 0.51052,9.21238 3.40768,10.82441 4.74325,3.52568 1.707,6.5846 0.53454,9.75534 -1.5019,2.75696 -4.01666,5.0075 -6.21402,7.41673 l -4.81085,0.20045 2.83736,-5.46617 c 3.8056,0.49261 9.22807,-2.51448 4.24529,-5.75915 -4.78233,-5.37263 -2.22725,-6.77083 -3.34087,-10.15624 0.73546,-6.98729 0.20885,-13.90987 -3.94223,-20.64657 -6.40813,-7.94863 -12.65774,-14.71717 -16.83798,-6.08038 -2.11554,6.97942 -3.27307,14.74779 -7.34991,20.11203 -5.3602,-3.22268 -5.87614,-8.47549 -12.09395,-12.42804 -6.65982,-4.62441 -8.55691,-2.07532 -8.01808,4.14268 -0.0167,5.97821 0.69392,11.36137 1.6516,16.54238 1.03869,4.47925 -0.4745,10.52773 -1.18118,11.52828 -3.48548,3.35625 -0.0937,8.19583 0.47247,12.42596 l 2.31511,9.92188 z"
         style="fill:#000000;stroke:#000000;stroke-width:0.26458332px;stroke-linecap:butt;stroke-linejoin:miter;stroke-opacity:1" />
      <path
         sodipodi:nodetypes="cccccccccc"
         inkscape:connector-curvature="0"
         id="path1087"
         d="m 114.99271,-112.12283 c 1.79731,-4.4686 4.72733,-7.55431 8.92012,-7.61718 6.8765,-0.80755 9.61989,7.90828 11.48686,7.32796 0.9024,-0.51465 2.60924,3.19071 10.31013,0.15829 l 0.23624,-4.48843 c -2.787,5.13866 -5.40882,2.51409 -8.07924,2.17336 -3.79796,-0.35493 -7.56184,-8.25055 -11.62277,-8.12648 -4.96184,-0.46662 -5.80663,1.65897 -7.55953,3.21279 -2.13954,4.44159 -4.00049,4.51853 -5.76413,3.07106 z"
         style="fill:#000000;stroke:#000000;stroke-width:0.26458332px;stroke-linecap:butt;stroke-linejoin:miter;stroke-opacity:1" />
      <path
         sodipodi:nodetypes="ccccccccccccccccccc"
         inkscape:connector-curvature="0"
         id="path1089"
         d="m 106.70736,-135.64255 c 2.0945,1.10438 2.22795,-2.28543 2.87314,-3.34087 2.71125,-5.0311 6.57793,-7.40801 9.88898,-10.89123 4.24313,-4.42535 12.35594,-2.69223 13.96483,-1.80407 8.98622,4.67999 15.75777,16.32572 17.37252,20.78021 1.57854,4.80667 2.14024,9.44387 3.20724,14.16528 0.76221,1.94574 -3.87011,2.68091 -2.33861,9.68852 l 0.60135,9.153983 -5.4122,-0.200453 c 1.00276,-1.93764 3.45593,-3.69398 3.00678,-5.81311 0.44152,-2.63371 -0.6646,-3.93266 0.66817,-8.08491 1.38073,-2.17549 3.19229,-4.31605 1.40317,-6.74855 -0.58529,-5.56179 -3.86536,-10.52473 -5.87993,-15.7689 -1.44757,-3.85386 -2.96587,-5.51655 -4.61041,-7.3165 -2.68133,-3.37438 -9.48806,-1.52567 -13.89801,-2.50566 -2.8307,-1.02586 -5.99133,-5.76341 -8.48581,-3.00678 -2.60845,2.15915 -4.44601,1.8045 -8.95352,10.15624 l -4.40995,7.684 z"
         style="fill:#000000;stroke:#000000;stroke-width:0.26458332px;stroke-linecap:butt;stroke-linejoin:miter;stroke-opacity:1" />
    </g>
    <g
       id="g896"
       transform="matrix(0.20396212,0,0,0.20396212,96.378386,127.44146)">
      <path
         sodipodi:nodetypes="ccccc"
         inkscape:connector-curvature="0"
         id="path887"
         d="m 10.016369,-315.51041 c 1.15742,-21.19762 9.636151,-37.54274 32.411457,-44.41222 l -0.755951,-8.78794 c -23.774609,6.7558 -39.4004656,22.20359 -40.5379464,53.10566 z"
         style="fill:#dd0067;fill-opacity:1;stroke:none;stroke-width:0.26458332px;stroke-linecap:butt;stroke-linejoin:miter;stroke-opacity:1" />
      <path
         style="fill:#dd0067;fill-opacity:1;stroke:none;stroke-width:0.26458332px;stroke-linecap:butt;stroke-linejoin:miter;stroke-opacity:1"
         d="m 27.30878,-314.093 c 0.421086,-16.84102 6.036489,-25.43836 20.977677,-31.65552 l -0.755951,-8.78794 c -15.639746,5.40634 -29.029183,13.81845 -29.104167,40.34896 z"
         id="path889"
         inkscape:connector-curvature="0"
         sodipodi:nodetypes="ccccc" />
      <path
         sodipodi:nodetypes="ccccc"
         inkscape:connector-curvature="0"
         id="path891"
         d="m 44.506697,-313.62053 c -0.334866,-8.80903 3.768632,-13.7211 10.205356,-16.72546 l -2.645832,-8.59895 c -11.830109,6.53553 -16.087955,12.29514 -16.441965,25.22991 z"
         style="fill:#dd0067;fill-opacity:1;stroke:none;stroke-width:0.26458332px;stroke-linecap:butt;stroke-linejoin:miter;stroke-opacity:1" />
    </g>
    <path
       style="fill:#ffb400;fill-opacity:1;stroke:none;stroke-width:0.05396497px;stroke-linecap:butt;stroke-linejoin:miter;stroke-opacity:1"
       d="m 45.728357,122.91336 6.321708,6.66847 -12.296323,0.0386 0.115617,6.05177 12.064968,-0.23125 -6.20597,6.20598 8.480304,-0.26983 8.788493,-9.097 -8.788493,-9.09689 z"
       id="path898"
       inkscape:connector-curvature="0" />
    <text
       xml:space="preserve"
       style="font-style:normal;font-variant:normal;font-weight:normal;font-stretch:normal;font-size:23.55640411px;line-height:1.25;font-family:Chilanka;-inkscape-font-specification:Chilanka;letter-spacing:0px;word-spacing:0px;fill:#dd0067;fill-opacity:1;stroke:none;stroke-width:0.1226896"
       x="23.032946"
       y="211.95264"
       id="text906"><tspan
         sodipodi:role="line"
         id="tspan904"
         x="23.032946"
         y="211.95264"
         style="font-style:normal;font-variant:normal;font-weight:600;font-stretch:normal;font-family:FreeSans;-inkscape-font-specification:'FreeSans Semi-Bold';fill:#dd0067;fill-opacity:1;stroke-width:0.1226896">Freifunk</tspan></text>
    <text
       id="text910"
       y="211.9175"
       x="124.19556"
       style="font-style:normal;font-variant:normal;font-weight:normal;font-stretch:normal;font-size:23.55640411px;line-height:1.25;font-family:Chilanka;-inkscape-font-specification:Chilanka;letter-spacing:0px;word-spacing:0px;fill:#ffb400;fill-opacity:1;stroke:none;stroke-width:0.1226896"
       xml:space="preserve"><tspan
         style="font-style:normal;font-variant:normal;font-weight:600;font-stretch:normal;font-family:FreeSans;-inkscape-font-specification:'FreeSans Semi-Bold';fill:#ffb400;fill-opacity:1;stroke-width:0.1226896"
         y="211.9175"
         x="124.19556"
         id="tspan908"
         sodipodi:role="line">Lippe</tspan></text>
    <text
       xml:space="preserve"
       style="font-style:normal;font-variant:normal;font-weight:normal;font-stretch:normal;font-size:7.12743139px;line-height:1.25;font-family:Chilanka;-inkscape-font-specification:Chilanka;letter-spacing:0px;word-spacing:0px;fill:#000000;fill-opacity:1;stroke:none;stroke-width:0.19798417"
       x="24.036551"
       y="243.54529"
       id="text918"><tspan
         sodipodi:role="line"
         id="tspan916"
         x="24.036551"
         y="243.54529"
         style="font-style:normal;font-variant:normal;font-weight:normal;font-stretch:normal;font-family:FreeSans;-inkscape-font-specification:FreeSans;stroke-width:0.19798417">2a03:2260:2004:______:______:___ff:fe___:______</tspan></text>
    <path
       style="fill:none;stroke:#000000;stroke-width:0.1631697;stroke-linecap:butt;stroke-linejoin:miter;stroke-miterlimit:4;stroke-dasharray:none;stroke-opacity:1"
       d="m 20.537373,139.12699 c 5.025236,-19.25461 18.197186,-32.23741 39.64959,-35.41632 4.109467,-0.60896 9.210818,5.7237 17.309503,-11.398311 5.697309,-12.04509 14.757645,-17.76626 16.496989,-31.88831 1.382747,-11.226819 10.583185,-11.736399 16.694565,-7.393305 4.85763,3.452115 4.18927,10.726026 18.60251,10.73222 22.82714,0.0098 53.43612,23.850315 57.71548,48.891216 6.15884,36.03874 -12.0161,53.75235 -26.94979,64.15482 -25.7807,17.95828 -9.57817,15.74059 2.14645,15.74059 h 20.03347 c 15.90361,0 9.72284,18.57662 1.19247,21.94143 -13.76856,5.431 -4.18155,20.03177 1.90794,19.79498 15.51775,-0.6034 12.80429,14.76601 -0.71548,14.78661 l -156.451894,0.2385 c -14.313899,0.0218 -10.300887,-15.8269 -3.57741,-16.21758 13.740349,-0.79841 9.328096,-17.71131 -0.238496,-18.36402 -13.598541,-0.9278 -8.638496,-24.30264 0.953975,-24.32636 18.261676,-0.0452 15.417323,-11.44127 3.57741,-21.94142 -9.499038,-8.42417 -10.179921,-22.3128 -8.347282,-29.33474 z"
       id="path980"
       inkscape:connector-curvature="0"
       sodipodi:nodetypes="sssssssssssssssssss" />
  </g>
</svg>
