<?xml version="1.0" encoding="UTF-8" standalone="no"?>
<svg
   xmlns:dc="http://purl.org/dc/elements/1.1/"
   xmlns:cc="http://creativecommons.org/ns#"
   xmlns:rdf="http://www.w3.org/1999/02/22-rdf-syntax-ns#"
   xmlns:svg="http://www.w3.org/2000/svg"
   xmlns="http://www.w3.org/2000/svg"
   xmlns:sodipodi="http://sodipodi.sourceforge.net/DTD/sodipodi-0.dtd"
   xmlns:inkscape="http://www.inkscape.org/namespaces/inkscape"
   version="1.1"
   width="1006.7882"
   height="627.32495"
   viewBox="0 0 1006.7882 627.32495"
   id="svg18"
   sodipodi:docname="36c3(2).svg"
   inkscape:export-filename="/home/deus/Downloads/36c3(2).svg.png"
   inkscape:export-xdpi="600"
   inkscape:export-ydpi="600"
   inkscape:version="0.92.3 (2405546, 2018-03-11)">
  <metadata
     id="metadata24">
    <rdf:RDF>
      <cc:Work
         rdf:about="">
        <dc:format>image/svg+xml</dc:format>
        <dc:type
           rdf:resource="http://purl.org/dc/dcmitype/StillImage" />
        <dc:title></dc:title>
      </cc:Work>
    </rdf:RDF>
  </metadata>
  <defs
     id="defs22" />
  <sodipodi:namedview
     pagecolor="#ffffff"
     bordercolor="#666666"
     borderopacity="1"
     objecttolerance="10"
     gridtolerance="10"
     guidetolerance="10"
     inkscape:pageopacity="0"
     inkscape:pageshadow="2"
     inkscape:window-width="1920"
     inkscape:window-height="1012"
     id="namedview20"
     showgrid="false"
     fit-margin-top="0"
     fit-margin-left="0"
     fit-margin-right="0"
     fit-margin-bottom="0"
     inkscape:zoom="0.55441915"
     inkscape:cx="227.18823"
     inkscape:cy="102.245"
     inkscape:window-x="0"
     inkscape:window-y="1080"
     inkscape:window-maximized="1"
     inkscape:current-layer="svg18" />
  <path
     id="path853"
     style="fill:#000000;stroke:#000000;stroke-width:43.15842438;stroke-linecap:square;stroke-linejoin:round;stroke-miterlimit:4;stroke-dasharray:none;stroke-opacity:1"
     d="m 985.20899,527.59446 -6.8374,78.15148 C 778.89954,588.41011 431.51041,582.36566 382.07441,553.57669 276.80562,489.92407 143.57045,515.2554 21.579212,504.81058 v -78.45 C 615.67256,426.60557 565.82335,387.34993 698.83606,237.12725 l -119.90974,-35.86139 26.77018,-89.52152 136.10914,34.98838 0.50868,-125.15358 105.37239,3.47983 -12.45562,125.72532 119.1879,-38.19214 28.5102,88.98264 -122.68358,39.31074 123.34028,113.68005 z"
     inkscape:connector-curvature="0"
     sodipodi:nodetypes="ccccccccccccccccc" />
  <g
     transform="matrix(0.75,0,0,0.75,84.178912,-181.81443)"
     id="g16">
    <g
       stroke-width="none"
       stroke-linecap="none"
       stroke-linejoin="none"
       stroke-miterlimit="none"
       font-weight="none"
       font-size="none"
       text-anchor="none"
       style="font-family:none;mix-blend-mode:normal;fill:none;fill-rule:nonzero;stroke:none;stroke-dasharray:none;stroke-dashoffset:0"
       id="g14">
      <path
         d="m 1172.9045,711.13355 -2.5971,20.93504 17.4643,14.15392 0.1346,23.7612 -53.763,0.30955 3.391,-4.47101 0.3425,-11.62673 1.1039,-8.44535 7.4116,-6.77156 4.26,-12.62176 9.0064,-7.59168 -2.8288,-12.49316 7.8064,-4.6229 0.2778,-0.20875 z"
         id="path859 1 1"
         stroke-miterlimit="4"
         inkscape:connector-curvature="0"
         style="fill:#d0d0ce;stroke:#00009a;stroke-width:0.37795001;stroke-linecap:round;stroke-linejoin:bevel;stroke-miterlimit:4" />
      <path
         d="m 731.78199,402.30779 0.85351,14.66476 28.04947,11.126 14.74208,18.17964 26.20518,4.43591 -4.43591,26.20518 41.37681,4.91847 20.28838,39.09618 45.32351,-6.12144 18.14671,19.78606 31.22258,2.63103 4.81921,25.98709 19.51493,6.27369 2.84263,13.40663 20.39422,7.93961 5.7844,31.01776 31.2756,5.1565 8.1113,22.54274 16.5741,3.97324 -0.096,0.33387 -3.4496,8.39123 9.7806,8.27177 -2.6202,11.48405 4.198,12.64249 -1.8406,9.86905 4.2034,7.40768 6.7268,9.48939 -0.016,5.61146 L 1023.457,769.9933 919.24944,633.44727 824.36592,770.7254 721.88234,699.89183 819.54287,558.58889 659.66321,510.77371 695.35679,391.41168 Z"
         id="path3"
         stroke-miterlimit="4"
         inkscape:connector-curvature="0"
         style="fill:#d0d0ce;stroke:#00009a;stroke-width:0.37795001;stroke-linecap:round;stroke-linejoin:bevel;stroke-miterlimit:4" />
      <path
         d="m 1018.0104,275.83119 7.6562,97.84491 -11.1329,-6.49017 -11.0683,5.09359 -7.00057,-10.93911 -16.35753,3.71861 -7.66823,-15.92259 -11.65128,-6.37225 -16.85411,-6.12818 -5.13494,-15.05334 -3.41366,-15.71521 0.13564,-11.56963 -8.57232,-11.34115 z"
         id="path925 1 1"
         stroke-miterlimit="4"
         inkscape:connector-curvature="0"
         style="fill:#d0d0ce;stroke:#00009a;stroke-width:0.37795001;stroke-linecap:round;stroke-linejoin:bevel;stroke-miterlimit:4" />
      <path
         d="m 1001.4029,443.46495 158.9172,-50.92285 38.0136,118.64352 -163.5781,52.41431 83.6553,116.12072 -22.4356,-1.40628 -10.0222,-18.56278 -28.5884,-7.69429 -7.4855,-22.75818 -31.1213,-6.0184 -4.9254,-31.1657 -20.16715,-8.4999 -2.47124,-13.48003 -19.3342,-6.81032 -4.09959,-26.11029 -31.138,-3.49243 -17.59327,-20.27974 -45.4753,4.86723 -19.20076,-39.64165 -41.22517,-6.05946 5.15803,-26.07266 -26.07266,-5.15803 -14.23431,-18.5799 -27.73146,-11.89651 -0.44813,-14.68274 127.03635,41.84426 0.67824,-166.87144 33.24758,0.13513 7.61273,12.00636 -1.08461,11.51947 2.11253,15.94234 3.88232,15.42395 16.29438,7.49058 11.08907,7.30688 6.33574,16.49815 16.60752,-2.36374 6.07931,11.4767 11.44891,-4.16813 10.56284,7.38187 z"
         id="path6"
         stroke-miterlimit="4"
         inkscape:connector-curvature="0"
         style="fill:#d0d0ce;stroke:#00009a;stroke-width:0.37795001;stroke-linecap:round;stroke-linejoin:bevel;stroke-miterlimit:4" />
      <path
         d="m 767.06918,759.53821 c 0.0919,-5.26586 -0.5555,-10.19458 -1.94224,-14.78615 -1.38674,-4.59157 -3.51776,-8.5627 -6.39306,-11.91339 -2.87529,-3.35069 -6.49603,-6.01429 -10.8622,-7.99079 -4.36617,-1.9765 -9.44881,-3.01536 -15.24793,-3.11659 l -14.99772,-0.26179 -1.29846,74.38867 17.19738,0.30018 c 6.06574,0.10588 11.21575,-0.80438 15.45001,-2.73078 4.23427,-1.9264 7.68087,-4.56665 10.33981,-7.92075 2.65894,-3.35411 4.59426,-7.27093 5.80596,-11.75046 1.2117,-4.47954 1.86118,-9.21892 1.94844,-14.21816 z m -58.41098,51.68846 1.82552,-104.58407 488.72558,8.53074 -1.8256,104.58407 z m 88.35709,-13.96009 1.29846,-74.38867 -16.79744,-0.2932 -1.29846,74.38867 z m 51.83423,-18.69821 6.35691,19.71395 19.09709,0.33334 -20.49822,-74.76913 -22.39659,-0.39093 -23.09514,74.00821 19.09709,0.33334 6.94106,-19.48183 z m 87.57095,2.42869 c 0.0663,-3.79942 -0.54294,-7.09389 -1.82779,-9.8834 -1.28485,-2.78952 -3.0079,-5.3033 -5.16917,-7.54136 -2.16127,-2.23806 -4.64323,-4.24835 -7.44588,-6.03087 -2.80265,-1.78252 -5.72195,-3.56707 -8.7579,-5.35366 -2.17174,-1.63815 -3.76576,-2.9495 -4.78207,-3.93406 -1.01631,-0.98455 -1.5134,-2.11007 -1.4913,-3.37654 0.0291,-1.66641 0.60082,-2.90662 1.7152,-3.72063 1.11438,-0.81401 2.33813,-1.20938 3.67126,-1.18611 1.26647,0.0221 2.37832,0.30822 3.33553,0.85834 0.95721,0.55012 1.77907,1.21457 2.46559,1.99333 0.68651,0.77877 1.22189,1.62157 1.60612,2.52842 0.38423,0.90684 0.66993,1.72862 0.8571,2.46533 l 14.79899,-5.54257 c -0.29838,-2.00551 -0.96308,-4.03409 -1.99409,-6.08573 -1.03102,-2.05164 -2.48242,-3.89392 -4.35421,-5.52683 -1.87179,-1.63292 -4.18179,-2.9901 -6.93,-4.07157 -2.74821,-1.08146 -5.95537,-1.65419 -9.62148,-1.71818 -3.06736,0.0131 -6.04172,0.42796 -8.92308,1.24446 -2.88136,0.8165 -5.43641,2.03877 -7.66516,3.66678 -2.22875,1.62802 -4.03122,3.66354 -5.4074,6.10656 -1.37618,2.44302 -2.09277,5.29762 -2.14979,8.56379 -0.0617,3.5328 0.50371,6.47644 1.69614,8.83095 1.19242,2.3545 2.85551,4.48385 4.98927,6.38805 2.13376,1.9042 4.63558,3.73147 7.50547,5.48182 2.86989,1.75035 5.9848,3.78836 9.34472,6.11402 1.51448,1.09326 2.67989,2.13043 3.49623,3.11149 0.81634,0.98106 1.24794,2.03876 1.29482,3.17308 0.0341,1.86755 -0.50636,3.22499 -1.62132,4.07232 -1.11496,0.84734 -2.24018,1.32777 -3.37567,1.44131 -1.33662,0.1767 -2.58149,-0.12841 -3.73459,-0.91532 -1.15311,-0.78691 -2.12117,-1.67061 -2.90417,-2.65109 -0.78301,-0.98048 -1.38358,-1.90777 -1.80172,-2.78187 -0.41814,-0.8741 -0.55997,-1.34331 -0.4255,-1.40764 l -16.11449,6.41974 c 0.62003,2.6779 1.6616,5.07977 3.12472,7.20563 1.46312,2.12586 3.24839,3.94063 5.3558,5.4443 2.10741,1.50368 4.4706,2.67843 7.08957,3.52427 2.61897,0.84584 5.42823,1.29493 8.42777,1.34729 3.86608,0.0675 7.34007,-0.32195 10.42198,-1.16829 3.08191,-0.84634 5.7197,-2.03382 7.91338,-3.56244 2.19368,-1.52861 3.92542,-3.332 5.19521,-5.41016 1.2698,-2.07816 1.99229,-4.31589 2.16749,-6.71319 z m 12.57033,-55.48907 -1.29846,74.38867 17.0974,0.29844 0.45725,-26.19601 5.59915,0.0977 c 3.19951,0.0558 6.10925,-0.47678 8.72922,-1.5979 2.61997,-1.12111 4.86509,-2.73218 6.73538,-4.83319 1.87029,-2.10101 3.33095,-4.60924 4.38199,-7.52467 1.05104,-2.91543 1.60798,-6.17288 1.67081,-9.77233 0.064,-3.66611 -0.37805,-6.991 -1.32612,-9.97466 -0.94807,-2.98367 -2.32031,-5.54134 -4.11671,-7.67302 -1.7964,-2.13168 -3.98452,-3.78678 -6.56434,-4.96532 -2.57982,-1.17854 -5.46949,-1.79573 -8.66901,-1.85158 z m 110.7049,29.33654 c -0.01,-3.40065 -0.583,-6.7112 -1.727,-9.93165 -1.1439,-3.22046 -2.8936,-6.1181 -5.249,-8.69293 -2.6829,-2.91393 -5.7607,-5.16799 -9.2334,-6.76217 -3.4728,-1.59418 -7.1755,-2.4256 -11.1082,-2.49424 l -0.1,-0.002 c -3.9327,-0.0686 -7.6455,0.63333 -11.1384,2.10593 -3.4929,1.4726 -6.6642,3.61758 -9.5138,6.43494 -2.3772,2.49223 -4.2278,5.37703 -5.5519,8.65442 -1.324,3.27739 -2.014,6.51584 -2.0698,9.71536 l -0.3037,17.39735 c 0,4.00055 0.5143,7.77683 1.5525,11.32882 1.0382,3.55199 2.8326,6.75046 5.3834,9.59541 2.7495,2.9151 5.8606,5.16974 9.3333,6.76392 3.4727,1.59418 7.1421,2.42502 11.0082,2.4925 l 0.1,0.002 c 3.9327,0.0687 7.6622,-0.63304 11.1884,-2.10506 3.5263,-1.47202 6.6814,-3.65062 9.4655,-6.5358 2.7152,-2.75303 4.6549,-5.96967 5.8193,-9.64991 1.1645,-3.68024 1.7781,-7.32008 1.8409,-10.91954 z m 55.6711,47.9789 -14.5794,-29.95901 c 0.8666,0.0151 2.0743,-0.41386 3.6231,-1.28697 1.5488,-0.8731 3.0885,-2.17976 4.6191,-3.91998 1.5306,-1.74022 2.8685,-3.90053 4.0137,-6.48094 1.1452,-2.58041 1.7469,-5.53702 1.8051,-8.86985 0.056,-3.19951 -0.2576,-6.25545 -0.9402,-9.1678 -0.6826,-2.91236 -1.8548,-5.46654 -3.5168,-7.66254 -1.6619,-2.19601 -3.898,-3.96863 -6.7082,-5.31788 -2.8102,-1.34925 -6.3483,-2.06111 -10.6143,-2.13557 l -22.6966,-0.39617 -1.2984,74.38867 16.7974,0.2932 0.4224,-24.19631 0.1999,0.003 9.5762,24.37084 z m 48.7347,-18.75232 6.3569,19.71395 19.0971,0.33334 -20.4982,-74.76913 -22.3966,-0.39093 -23.0951,74.00821 19.097,0.33334 6.9411,-19.48183 z"
         stroke-miterlimit="10"
         id="path8"
         inkscape:connector-curvature="0"
         style="fill:#fe5000;stroke:none;stroke-width:1;stroke-linecap:butt;stroke-linejoin:miter;stroke-miterlimit:10" />
      <path
         d="m -28.06626,825.6 h -50.6 v 16.8 h 16.9 V 900 h 16.8 v -57.6 h 16.9 z m -55.4,89.9 V 810.9 H 1198.3337 v 104.6 z m 101.4,-89.9 v 28.8 h -19.9 v -28.8 h -16.8 V 900 h 16.8 v -28.8 h 19.9 V 900 h 16.8 v -74.4 z m 75.6,16.8 v -16.8 h -45.6 V 900 h 45.6 v -16.8 h -28.8 v -12 h 21.2 v -16.8 h -21.2 v -12 z m 95.2,10.6 c -0.0667,-3.4 -0.7,-6.7 -1.9,-9.9 -1.2,-3.2 -3,-6.06667 -5.4,-8.6 -2.73333,-2.86667 -5.85,-5.06667 -9.35,-6.6 -3.5,-1.53333 -7.21667,-2.3 -11.15,-2.3 h -0.1 c -3.93333,0 -7.63333,0.76667 -11.1,2.3 -3.46667,1.53333 -6.6,3.73333 -9.4,6.6 -2.33333,2.53333 -4.13333,5.45 -5.4,8.75 -1.26667,3.3 -1.9,6.55 -1.9,9.75 v 17.4 c 0.0667,4 0.65,7.76667 1.75,11.3 1.1,3.53333 2.95,6.7 5.55,9.5 2.8,2.86667 5.95,5.06667 9.45,6.6 3.5,1.53333 7.18333,2.3 11.05,2.3 h 0.1 c 3.93333,0 7.65,-0.76667 11.15,-2.3 3.5,-1.53333 6.61667,-3.76667 9.35,-6.7 2.66667,-2.8 4.55,-6.05 5.65,-9.75 1.1,-3.7 1.65,-7.35 1.65,-10.95 z m 46.7,-27.4 v 36.5 l -19.9,-36.5 h -17.1 V 900 h 17.8 v -36.6 l 20,36.6 h 17 v -74.4 z m 46.5,57.6 v -57.6 h -16.8 V 900 h 36.7 v -16.8 z m 48.2,16.8 v -74.4 h -16.8 V 900 Z m 47.3,-74.4 v 36.5 l -19.9,-36.5 h -17.1 V 900 h 17.8 v -36.6 l 20,36.6 h 17 v -74.4 z m 74.3,16.8 v -16.8 h -45.6 V 900 h 45.6 v -16.8 h -28.8 v -12 h 21.2 v -16.8 h -21.2 v -12 z m 88.7,38.9 c 0,-3.8 -0.66667,-7.08333 -2,-9.85 -1.33333,-2.76667 -3.1,-5.25 -5.3,-7.45 -2.2,-2.2 -4.71667,-4.16667 -7.55,-5.9 -2.83333,-1.73333 -5.78333,-3.46667 -8.85,-5.2 -2.2,-1.6 -3.81667,-2.88333 -4.85,-3.85 -1.03333,-0.96667 -1.55,-2.08333 -1.55,-3.35 0,-1.66667 0.55,-2.91667 1.65,-3.75 1.1,-0.83333 2.31667,-1.25 3.65,-1.25 1.26667,0 2.38333,0.26667 3.35,0.8 0.96667,0.53333 1.8,1.18333 2.5,1.95 0.7,0.76667 1.25,1.6 1.65,2.5 0.4,0.9 0.7,1.71667 0.9,2.45 l 14.7,-5.8 c -0.33333,-2 -1.03333,-4.01667 -2.1,-6.05 -1.06667,-2.03333 -2.55,-3.85 -4.45,-5.45 -1.9,-1.6 -4.23333,-2.91667 -7,-3.95 -2.76667,-1.03333 -5.98333,-1.55 -9.65,-1.55 -3.06667,0.0667 -6.03333,0.53333 -8.9,1.4 -2.86667,0.86667 -5.4,2.13333 -7.6,3.8 -2.2,1.66667 -3.96667,3.73333 -5.3,6.2 -1.33333,2.46667 -2,5.33333 -2,8.6 0,3.53333 0.61667,6.46667 1.85,8.8 1.23333,2.33333 2.93333,4.43333 5.1,6.3 2.16667,1.86667 4.7,3.65 7.6,5.35 2.9,1.7 6.05,3.68333 9.45,5.95 1.53333,1.06667 2.71667,2.08333 3.55,3.05 0.83333,0.96667 1.28333,2.01667 1.35,3.15 0.0667,1.86667 -0.45,3.23333 -1.55,4.1 -1.1,0.86667 -2.21667,1.36667 -3.35,1.5 -1.33333,0.2 -2.58333,-0.0833 -3.75,-0.85 -1.16667,-0.76667 -2.15,-1.63333 -2.95,-2.6 -0.8,-0.96667 -1.41667,-1.88333 -1.85,-2.75 -0.43333,-0.86667 -0.58333,-1.33333 -0.45,-1.4 l -16,6.7 c 0.66667,2.66667 1.75,5.05 3.25,7.15 1.5,2.1 3.31667,3.88333 5.45,5.35 2.13333,1.46667 4.51667,2.6 7.15,3.4 2.63333,0.8 5.45,1.2 8.45,1.2 3.86667,0 7.33333,-0.45 10.4,-1.35 3.06667,-0.9 5.68333,-2.13333 7.85,-3.7 2.16667,-1.56667 3.86667,-3.4 5.1,-5.5 1.23333,-2.1 1.91667,-4.35 2.05,-6.75 z m 66.8,-28.3 c -0.0667,-3.4 -0.7,-6.7 -1.9,-9.9 -1.2,-3.2 -3,-6.06667 -5.4,-8.6 -2.73333,-2.86667 -5.85,-5.06667 -9.35,-6.6 -3.5,-1.53333 -7.21667,-2.3 -11.15,-2.3 h -0.1 c -3.93333,0 -7.63333,0.76667 -11.1,2.3 -3.46667,1.53333 -6.6,3.73333 -9.4,6.6 -2.33333,2.53333 -4.13333,5.45 -5.4,8.75 -1.26667,3.3 -1.9,6.55 -1.9,9.75 v 17.4 c 0.0667,4 0.65,7.76667 1.75,11.3 1.1,3.53333 2.95,6.7 5.55,9.5 2.8,2.86667 5.95,5.06667 9.45,6.6 3.5,1.53333 7.18333,2.3 11.05,2.3 h 0.1 c 3.93333,0 7.65,-0.76667 11.15,-2.3 3.5,-1.53333 6.61667,-3.76667 9.35,-6.7 2.66667,-2.8 4.55,-6.05 5.65,-9.75 1.1,-3.7 1.65,-7.35 1.65,-10.95 z m 37,30.5 c -3.4,-0.26667 -6.13333,-1.65 -8.2,-4.15 -2.06667,-2.5 -3.1,-5.58333 -3.1,-9.25 v -14.5 c 0,-3.66667 1.01667,-6.71667 3.05,-9.15 2.03333,-2.43333 4.75,-3.78333 8.15,-4.05 1.4,-0.0667 2.73333,0.2 4,0.8 1.26667,0.6 2.4,1.4 3.4,2.4 1,1 1.85,2.13333 2.55,3.4 0.7,1.26667 1.25,2.5 1.65,3.7 l 14.5,-8.1 c -0.73333,-2.26667 -1.75,-4.53333 -3.05,-6.8 -1.3,-2.26667 -3,-4.3 -5.1,-6.1 -2.1,-1.8 -4.61667,-3.26667 -7.55,-4.4 -2.93333,-1.13333 -6.43333,-1.7 -10.5,-1.7 h -0.1 c -4.6,0 -8.63333,0.85 -12.1,2.55 -3.46667,1.7 -6.35,3.95 -8.65,6.75 -2.3,2.8 -4.03333,5.98333 -5.2,9.55 -1.16667,3.56667 -1.78333,7.18333 -1.85,10.85 v 15.4 c 0.2,3.86667 0.8,7.58333 1.8,11.15 1,3.56667 2.58333,6.7 4.75,9.4 2.16667,2.7 4.96667,4.85 8.4,6.45 3.43333,1.6 7.68333,2.4 12.75,2.4 h 0.1 c 4.53333,0 8.35,-0.65 11.45,-1.95 3.1,-1.3 5.65,-2.85 7.65,-4.65 2,-1.8 3.55,-3.63333 4.65,-5.5 1.1,-1.86667 1.95,-3.4 2.55,-4.6 l -14.5,-8.1 c -1,2.33333 -2.45,4.33333 -4.35,6 -1.9,1.66667 -4.28333,2.4 -7.15,2.2 z m 55.6,16.5 v -74.4 h -16.8 V 900 Z m 51.5,-19.6 6.7,19.6 h 19.1 l -21.8,-74.4 h -22.4 l -21.8,74.4 h 19.1 l 6.6,-19.6 z m 56.7,2.8 v -57.6 h -16.8 V 900 h 36.7 v -16.8 z m 125.3,-57.6 -7.8,33.4 -7.8,-33.4 h -14.1 l -7.8,33.4 -7.9,-33.4 h -19.8 l 19.1,74.4 h 16.1 l 7.8,-31.4 6.8,31.4 h 15.1 l 21.1,-74.4 z m 87.79996,27.4 c -0.067,-3.4 -0.7,-6.7 -1.9,-9.9 -1.2,-3.2 -3,-6.06667 -5.4,-8.6 -2.7333,-2.86667 -5.85,-5.06667 -9.35,-6.6 -3.5,-1.53333 -7.21663,-2.3 -11.14996,-2.3 h -0.1 c -3.93333,0 -7.63333,0.76667 -11.1,2.3 -3.46667,1.53333 -6.6,3.73333 -9.4,6.6 -2.33333,2.53333 -4.13333,5.45 -5.4,8.75 -1.26667,3.3 -1.9,6.55 -1.9,9.75 v 17.4 c 0.0667,4 0.65,7.76667 1.75,11.3 1.1,3.53333 2.95,6.7 5.55,9.5 2.8,2.86667 5.95,5.06667 9.45,6.6 3.5,1.53333 7.18333,2.3 11.05,2.3 h 0.1 c 3.93333,0 7.64996,-0.76667 11.14996,-2.3 3.5,-1.53333 6.6167,-3.76667 9.35,-6.7 2.6667,-2.8 4.55,-6.05 5.65,-9.75 1.1,-3.7 1.65,-7.35 1.65,-10.95 z m 56.5,47 -15.1,-29.7 c 0.8667,0 2.0667,-0.45 3.6,-1.35 1.5334,-0.9 3.05,-2.23333 4.55,-4 1.5,-1.76667 2.8,-3.95 3.9,-6.55 1.1,-2.6 1.65,-5.56667 1.65,-8.9 0,-3.2 -0.3666,-6.25 -1.1,-9.15 -0.7333,-2.9 -1.95,-5.43333 -3.65,-7.6 -1.7,-2.16667 -3.9666,-3.9 -6.8,-5.2 -2.8333,-1.3 -6.3833,-1.95 -10.65,-1.95 h -22.7 V 900 h 16.8 v -24.2 h 0.2 l 10,24.2 z m 29.7,-16.8 v -57.6 h -16.8 V 900 h 36.7 v -16.8 z m 82.5,-20.4 c 0,-5.26667 -0.7333,-10.18333 -2.2,-14.75 -1.4666,-4.56667 -3.6666,-8.5 -6.6,-11.8 -2.9333,-3.3 -6.6,-5.9 -11,-7.8 -4.4,-1.9 -9.5,-2.85 -15.3,-2.85 h -15 V 900 h 17.2 c 6.0667,0 11.2,-1 15.4,-3 4.2,-2 7.6,-4.7 10.2,-8.1 2.6,-3.4 4.4667,-7.35 5.6,-11.85 1.1334,-4.5 1.7,-9.25 1.7,-14.25 z"
         stroke-miterlimit="10"
         id="path10"
         inkscape:connector-curvature="0"
         style="fill:#fe5000;stroke:none;stroke-width:1;stroke-linecap:butt;stroke-linejoin:miter;stroke-miterlimit:10" />
      <path
         d="m 464.00682,923.62811 c 0.22992,-3.39287 -0.11339,-6.73551 -1.02993,-10.02792 -0.91654,-3.29241 -2.45984,-6.30505 -4.62991,-9.03792 -2.47309,-3.09398 -5.38615,-5.55725 -8.73919,-7.38979 -3.35304,-1.83254 -6.98875,-2.92022 -10.90711,-3.26303 l -0.0996,-0.009 c -3.91837,-0.34281 -7.67111,0.0985 -11.25822,1.32382 -3.58711,1.22536 -6.90027,3.1439 -9.93946,5.75562 -2.54525,2.32033 -4.5926,5.06902 -6.14206,8.24606 -1.54946,3.17705 -2.46364,6.35948 -2.74254,9.5473 l -1.51651,17.33379 c -0.28221,3.99059 -0.0294,7.79376 0.75848,11.40952 0.78786,3.61576 2.35483,6.93161 4.7009,9.94756 2.5395,3.09979 5.48577,5.56596 8.83881,7.39851 3.35304,1.83254 6.95554,2.91732 10.80749,3.25432 l 0.0996,0.009 c 3.91837,0.34281 7.68771,-0.097 11.30803,-1.31946 3.62032,-1.22245 6.91977,-3.17565 9.89836,-5.8596 2.90056,-2.55693 5.05998,-5.63042 6.47827,-9.22047 1.41829,-3.59005 2.28432,-7.17822 2.59808,-10.76452 z m -66.81282,56.89337 9.11649,-104.20197 795.06301,69.559 -9.1165,104.20199 z m 132.96607,-78.71076 -17.23417,-1.50779 -3.79127,43.33447 c -0.15688,1.79315 -0.48768,3.4707 -0.9924,5.03266 -0.50472,1.56195 -1.19125,2.90724 -2.05959,4.03585 -0.86834,1.12861 -1.93073,1.9893 -3.18717,2.58205 -1.25644,0.59275 -2.71483,0.81649 -4.37515,0.67123 -1.66032,-0.14526 -3.0577,-0.61885 -4.19212,-1.42077 -1.13442,-0.80192 -2.04782,-1.83546 -2.74019,-3.10062 -0.69237,-1.26516 -1.15146,-2.71067 -1.37729,-4.33654 -0.22582,-1.62587 -0.26029,-3.33538 -0.10341,-5.12853 l 3.79127,-43.33447 -17.23417,-1.50779 -3.90458,44.62952 c -0.34281,3.91837 -0.18961,7.71282 0.45962,11.38338 0.64923,3.67055 1.91588,6.97686 3.79997,9.91893 1.88408,2.94207 4.44993,5.35823 7.69755,7.24847 3.24761,1.89024 7.2984,3.01423 12.15236,3.37198 l 0.0996,0.009 c 4.37745,0.4499 8.28896,0.10617 11.73453,-1.03119 3.44557,-1.13736 6.39553,-2.92037 8.84988,-5.34904 2.45434,-2.42866 4.42242,-5.41851 5.90421,-8.96955 1.4818,-3.55103 2.41444,-7.51818 2.79793,-11.90143 z m 60.16144,5.36383 -50.40745,-4.41008 -1.46422,16.73607 16.83569,1.47293 -5.02017,57.38081 16.73607,1.46422 5.02017,-57.38081 16.83569,1.47293 z m 92.25043,35.57553 c 0.22992,-3.39287 -0.11339,-6.73551 -1.02993,-10.02792 -0.91654,-3.29241 -2.45984,-6.30505 -4.62991,-9.03792 -2.47309,-3.09398 -5.38615,-5.55725 -8.73919,-7.38979 -3.35304,-1.83254 -6.98875,-2.92022 -10.90711,-3.26303 l -0.0996,-0.009 c -3.91837,-0.34281 -7.67111,0.0985 -11.25822,1.32382 -3.58711,1.22536 -6.90027,3.1439 -9.93946,5.75562 -2.54525,2.32033 -4.5926,5.06902 -6.14206,8.24606 -1.54946,3.17705 -2.46364,6.35948 -2.74254,9.5473 l -1.51651,17.33379 c -0.28221,3.99059 -0.0294,7.79376 0.75848,11.40952 0.78786,3.61576 2.35483,6.93161 4.7009,9.94756 2.5395,3.09979 5.48577,5.56596 8.83881,7.39851 3.35304,1.83254 6.95554,2.91732 10.80749,3.25432 l 0.0996,0.009 c 3.91837,0.34281 7.68771,-0.097 11.30803,-1.31946 3.62032,-1.22245 6.91977,-3.17565 9.89836,-5.8596 2.90056,-2.55693 5.05998,-5.63042 6.47827,-9.22047 1.41829,-3.59005 2.28432,-7.17822 2.59808,-10.76452 z m 55.11684,-5.81839 1.46422,-16.73607 -45.42648,-3.9743 -6.48439,74.11689 16.73607,1.46422 2.51009,-28.69041 21.11933,1.8477 1.46422,-16.73607 -21.11933,-1.8477 1.04587,-11.95434 z m 61.46942,46.63487 c -3.36382,-0.56198 -5.96619,-2.17828 -7.8071,-4.84889 -1.84091,-2.67061 -2.60158,-5.83227 -2.28201,-9.48498 l 1.26376,-14.44482 c 0.31957,-3.65271 1.59819,-6.6025 3.83587,-8.84936 2.23767,-2.24686 5.06166,-3.35495 8.47197,-3.32427 1.40048,0.0556 2.7055,0.43746 3.91505,1.14558 1.20955,0.70811 2.26885,1.60385 3.17789,2.6872 0.90904,1.08335 1.65703,2.28645 2.24397,3.60931 0.58694,1.32286 1.02735,2.59943 1.32125,3.82973 l 15.15078,-6.80542 c -0.53299,-2.32196 -1.34823,-4.66861 -2.44573,-7.03995 -1.0975,-2.37134 -2.61381,-4.5451 -4.54894,-6.52128 -1.93513,-1.97618 -4.31439,-3.65661 -7.13778,-5.04128 -2.82339,-1.38468 -6.26069,-2.25423 -10.31188,-2.60867 l -0.0996,-0.009 c -4.5825,-0.40092 -8.67456,0.0943 -12.2762,1.48571 -3.60164,1.39139 -6.6701,3.38153 -9.20539,5.97042 -2.53528,2.58889 -4.53947,5.60904 -6.01255,9.06045 -1.47308,3.45141 -2.40262,7.00057 -2.7886,10.64747 l -1.3422,15.3414 c -0.13776,3.86938 0.13602,7.6242 0.82136,11.26445 0.68534,3.64025 1.98956,6.89966 3.91266,9.77822 1.9231,2.87856 4.52506,5.26442 7.80588,7.15756 3.28082,1.89315 7.44492,3.06051 12.49231,3.50206 l 0.0996,0.01 c 4.51608,0.3952 8.37488,0.08 11.57638,-0.94459 3.20151,-1.02487 5.87689,-2.34672 8.02616,-3.96556 2.14927,-1.61884 3.85316,-3.3101 5.11166,-5.0738 1.2585,-1.76369 2.23891,-3.21711 2.94121,-4.36025 l -13.73886,-9.33294 c -1.19956,2.2373 -2.81835,4.10331 -4.85638,5.59804 -2.03803,1.49473 -4.47621,2.01755 -7.31453,1.56846 z m 96.30055,-22.1913 c 0.22992,-3.39287 -0.11339,-6.73551 -1.02993,-10.02792 -0.91654,-3.29241 -2.45984,-6.30505 -4.62991,-9.03792 -2.47309,-3.09398 -5.38615,-5.55725 -8.73919,-7.38979 -3.35304,-1.83254 -6.98875,-2.92022 -10.90711,-3.26303 l -0.0996,-0.009 c -3.91837,-0.34281 -7.67111,0.0985 -11.25822,1.32382 -3.58711,1.22536 -6.90027,3.1439 -9.93946,5.75562 -2.54525,2.32033 -4.5926,5.06902 -6.14206,8.24606 -1.54946,3.17705 -2.46364,6.35948 -2.74254,9.5473 l -1.51651,17.33379 c -0.28221,3.99059 -0.0294,7.79376 0.75848,11.40952 0.78786,3.61576 2.35483,6.93161 4.7009,9.94756 2.5395,3.09979 5.48577,5.56593 8.83881,7.39853 3.35304,1.8325 6.95554,2.9173 10.80749,3.2543 l 0.0996,0.01 c 3.91837,0.3428 7.68771,-0.097 11.30803,-1.3195 3.62032,-1.2224 6.91977,-3.1756 9.89836,-5.85954 2.90056,-2.55693 5.05998,-5.63042 6.47827,-9.22047 1.41829,-3.59005 2.28432,-7.17822 2.59808,-10.76452 z m 48.91036,-23.22556 -3.18118,36.36111 -16.64309,-38.09551 -17.03493,-1.49036 -6.48439,74.11686 17.73227,1.5514 3.1899,-36.46073 16.73399,38.20383 16.93531,1.4817 6.48439,-74.11693 z m 77.40429,6.772 -50.40741,-4.41008 -1.46422,16.73607 16.83569,1.47293 -5.02017,57.38078 16.73607,1.4642 5.02014,-57.38076 16.8357,1.47293 z m 50.8965,79.1371 -12.454,-30.90307 c 0.8633,0.0755 2.098,-0.26817 3.7039,-1.0311 1.606,-0.76294 3.2331,-1.95901 4.8813,-3.58822 1.6483,-1.62921 3.1336,-3.69093 4.4561,-6.18517 1.3224,-2.49423 2.1288,-5.40168 2.4194,-8.72233 0.2789,-3.18782 0.1794,-6.25817 -0.2984,-9.21105 -0.4778,-2.95288 -1.469,-5.58261 -2.9737,-7.8892 -1.5047,-2.30659 -3.6117,-4.23088 -6.3209,-5.77287 -2.7093,-1.54199 -6.1891,-2.49892 -10.4395,-2.87079 l -22.6137,-1.97844 -6.4843,74.11684 16.736,1.4643 2.1092,-24.10794 0.1992,0.0174 7.8528,24.97954 z m 70.941,-40.97304 c 0.2299,-3.39287 -0.1134,-6.73551 -1.03,-10.02792 -0.9165,-3.29241 -2.4598,-6.30505 -4.6299,-9.03792 -2.4731,-3.09398 -5.3861,-5.55725 -8.7392,-7.38979 -3.353,-1.83254 -6.9887,-2.92022 -10.9071,-3.26303 l -0.1,-0.009 c -3.9184,-0.34281 -7.6711,0.0985 -11.2582,1.32382 -3.5871,1.22536 -6.9003,3.1439 -9.9395,5.75562 -2.5452,2.32033 -4.5926,5.06902 -6.142,8.24606 -1.5495,3.17705 -2.4637,6.35948 -2.7426,9.5473 l -1.5165,17.33379 c -0.2822,3.99059 -0.029,7.79371 0.7585,11.40951 0.7878,3.6158 2.3548,6.9316 4.7009,9.9476 2.5395,3.0997 5.4858,5.5659 8.8388,7.3985 3.353,1.8325 6.9555,2.9173 10.8075,3.2543 l 0.1,0.01 c 3.9184,0.3428 7.6877,-0.097 11.308,-1.3195 3.6204,-1.2224 6.9198,-3.1756 9.8984,-5.8596 2.9005,-2.5569 5.06,-5.6304 6.4783,-9.2204 1.4183,-3.5901 2.2843,-7.1782 2.598,-10.7645 z m 25.2613,32.52544 5.0202,-57.38081 -16.7361,-1.46422 -6.4844,74.11693 36.5604,3.1986 1.4642,-16.7361 z"
         stroke-miterlimit="10"
         id="path12"
         inkscape:connector-curvature="0"
         style="fill:#fe5000;stroke:none;stroke-width:1;stroke-linecap:butt;stroke-linejoin:miter;stroke-miterlimit:10" />
    </g>
  </g>
  <path
     style="fill:none;stroke:#000000;stroke-width:1px;stroke-linecap:butt;stroke-linejoin:miter;stroke-opacity:1"
     d="m 922.98699,327.97607 60.5989,26.58951"
     id="path851"
     inkscape:connector-curvature="0" />
</svg>
